<svg xmlns="http://www.w3.org/2000/svg" viewBox="0 0 512 512" width="512" height="512">
  <!-- Background circle (golf ball) -->
  <circle cx="256" cy="256" r="240" fill="#FFFFFF" stroke="#1B3A2D" stroke-width="16"/>

  <!-- Golf ball dimples - subtle pattern -->
  <g fill="#E8E8E8" opacity="0.6">
    <circle cx="160" cy="120" r="20"/>
    <circle cx="220" cy="100" r="18"/>
    <circle cx="290" cy="110" r="22"/>
    <circle cx="350" cy="130" r="19"/>
    <circle cx="120" cy="180" r="18"/>
    <circle cx="380" cy="190" r="20"/>
    <circle cx="100" cy="260" r="16"/>
    <circle cx="400" cy="260" r="18"/>
    <circle cx="120" cy="340" r="19"/>
    <circle cx="380" cy="330" r="21"/>
    <circle cx="160" cy="400" r="18"/>
    <circle cx="350" cy="390" r="20"/>
    <circle cx="220" cy="420" r="16"/>
    <circle cx="290" cy="410" r="19"/>
  </g>

  <!-- Letter L - bold and centered -->
  <g fill="#1B3A2D">
    <!-- Vertical stroke of L -->
    <rect x="180" y="140" width="60" height="232" rx="8"/>
    <!-- Horizontal stroke of L -->
    <rect x="180" y="312" width="152" height="60" rx="8"/>
  </g>

  <!-- Gold accent - underline/highlight -->
  <rect x="180" y="380" width="152" height="12" rx="6" fill="#C4A265"/>

  <!-- Small golf tee accent -->
  <g fill="#C4A265">
    <rect x="340" y="200" width="8" height="40" rx="4"/>
    <circle cx="344" cy="196" r="12"/>
  </g>
</svg>
